<svg width="132" height="132" viewBox="0 0 132 132" fill="none" xmlns="http://www.w3.org/2000/svg">
<path d="M104.891 27.1095C99.7997 21.9783 93.7416 17.908 87.0669 15.1343C80.3922 12.3606 73.2336 10.9385 66.0055 10.9505C58.7759 10.9392 51.6158 12.3615 44.9394 15.1352C38.263 17.9088 32.2029 21.9787 27.1095 27.1095C5.665 48.5485 5.665 83.446 27.1095 104.891C32.203 110.023 38.2639 114.093 44.9414 116.867C51.6189 119.641 58.7803 121.062 66.011 121.05C73.2387 121.062 80.3971 119.641 87.0718 116.868C93.7464 114.095 99.8048 110.026 104.896 104.896C126.341 83.457 126.341 48.5595 104.891 27.1095V27.1095ZM66.9955 22H65.021C65.3565 21.9945 65.6755 21.9505 66.011 21.9505C66.3465 21.9505 66.66 21.9945 66.9955 22ZM100.337 93.5H88L81.081 107.338C76.2543 109.121 71.151 110.039 66.0055 110.05C60.8505 110.04 55.7376 109.12 50.9025 107.333L44 93.555H31.7075C27.1724 87.9168 24.1055 81.2425 22.781 74.129L33 60.5L26.312 47.1185C28.446 42.5788 31.3467 38.4408 34.8865 34.8865C39.8408 29.9148 45.9134 26.2015 52.5965 24.057L66 33L79.409 24.0625C86.0901 26.2085 92.162 29.9195 97.119 34.8865C100.655 38.4366 103.554 42.5687 105.688 47.102L99 60.5L109.219 74.129C107.901 81.2196 104.849 87.8741 100.337 93.5Z" fill="white"/>
<path d="M46.75 60.5L55 82.5H77L85.25 60.5L66 46.75L46.75 60.5Z" fill="white"/>
</svg>
