<svg width="34" height="34" viewBox="0 0 34 34" fill="none" xmlns="http://www.w3.org/2000/svg">
<path d="M17 11.3333L22.389 15.249M17 11.3333L11.611 15.249M17 11.3333V7.08331M22.389 15.249L20.3306 21.5843M22.389 15.249L26.2084 13.4583M20.3306 21.5843H13.6709M20.332 21.5843L22.6667 24.7916M13.6695 21.5843L11.611 15.249M13.6695 21.5843L11.3334 24.7916M11.611 15.249L7.79171 13.4583M7.79171 13.4583L2.90421 18.4166M7.79171 13.4583L6.37504 7.62873M26.2084 13.4583L31.0959 18.4166M26.2084 13.4583L27.625 7.62873M17 7.08331L12.2174 3.66065M17 7.08331L21.7827 3.66065M11.3334 24.7916L4.72887 24.0833M11.3334 24.7916L14.875 31.008M22.6667 24.7916L29.2712 24.0833M22.6667 24.7916L19.125 31.008M31.1667 17C31.1667 24.8242 24.8243 31.1666 17 31.1666C9.17579 31.1666 2.83337 24.8242 2.83337 17C2.83337 9.17573 9.17579 2.83331 17 2.83331C24.8243 2.83331 31.1667 9.17573 31.1667 17Z" stroke="white" stroke-width="1.5" stroke-linecap="round" stroke-linejoin="round"/>
</svg>
